<svg width="120" height="120" viewBox="0 0 120 120" fill="none" xmlns="http://www.w3.org/2000/svg">
<g filter="url(#filter0_d_1457_20756)">
<rect x="25" y="21" width="70" height="70" rx="15" fill="#CF51CE"/>
</g>
<path d="M59.4629 79.9315C58.5727 79.7261 57.751 79.4522 57.2032 78.699C56.8609 78.2197 56.587 77.6034 56.3131 77.0556C56.1761 76.7817 56.1077 76.6448 55.8338 76.5763C54.0535 76.234 52.2731 75.6177 50.6298 74.796C48.0278 73.495 45.7681 71.7147 43.9194 69.4551C43.7139 69.1812 43.5085 69.1812 43.2346 69.2496C41.5228 69.8659 39.674 69.1127 38.7838 67.5378C37.8937 65.8944 38.2361 63.9087 39.7425 62.8131C40.0164 62.6077 40.0848 62.4023 39.9479 62.0599C38.7154 58.02 38.7154 53.9116 39.9479 49.8716C40.0164 49.5977 40.0164 49.3923 39.7425 49.1869C38.2361 48.0913 37.8252 46.1056 38.7154 44.4622C39.6055 42.8188 41.4543 42.1341 43.2346 42.7504C43.577 42.8873 43.7139 42.7504 43.9194 42.5449C45.7681 40.2853 48.0278 38.505 50.6298 37.204C52.2047 36.3823 53.9165 35.8345 55.6283 35.4922C56.0392 35.4237 56.3131 35.2867 56.45 34.7389C56.7239 33.0956 58.2988 32 60.0107 32C61.7225 32 63.2289 33.2325 63.5713 34.8759C63.6398 35.2867 63.8452 35.4237 64.1876 35.4922C66.995 36.0399 69.5285 37.1355 71.8566 38.7789C73.4315 39.8745 74.801 41.107 75.965 42.5449C76.1704 42.8188 76.3759 42.8873 76.7182 42.7504C78.3616 42.1341 80.2789 42.8873 81.169 44.3937C82.0592 46.0371 81.7168 48.0228 80.2789 49.1184C80.005 49.3238 79.9365 49.5292 80.005 49.8716C81.2375 53.9116 81.2375 58.02 80.005 62.0599C79.9365 62.3338 79.9365 62.5392 80.2104 62.7447C81.5798 63.7718 82.0592 65.689 81.3744 67.2639C80.6212 68.9073 78.8409 69.8659 77.1975 69.3866C76.4443 69.1812 76.102 69.3866 75.6226 69.9344C72.6098 73.3581 68.7753 75.5492 64.3245 76.5078C63.9137 76.5763 63.6398 76.7817 63.5713 77.2611C63.1604 78.699 62.2018 79.5207 60.8323 79.9315C60.6954 79.9315 60.6269 80 60.49 80C60.0791 79.9315 59.8052 79.9315 59.4629 79.9315ZM59.9422 45.4893C54.1904 45.4893 49.4657 50.214 49.4657 55.9658C49.4657 61.7175 54.1904 66.4422 59.9422 66.4422C65.694 66.4422 70.4186 61.7175 70.4186 55.9658C70.4186 50.214 65.694 45.4893 59.9422 45.4893ZM56.3816 36.8616C51.6569 37.7518 47.8224 40.0799 44.8095 43.7775C45.6312 44.8046 45.9051 45.9001 45.6312 47.1327C45.6312 47.2696 45.7681 47.4066 45.8366 47.475C46.7268 47.9544 47.6169 48.4337 48.5071 48.913C48.9179 49.1184 49.3288 49.3923 49.7396 49.5977C52.2047 45.9686 55.5599 43.9829 59.9422 43.9829C64.3245 43.9829 67.6112 46.0371 70.0763 49.5977C71.2403 48.9815 72.3359 48.3652 73.4315 47.7489C73.9793 47.475 74.3216 47.2011 74.1847 46.4479C73.9793 45.4208 74.3901 44.5307 75.0749 43.709C72.062 40.0114 68.2275 37.6833 63.5028 36.7932C63.0235 38.2311 62.0649 39.0528 60.6269 39.3952C60.6269 40.4223 60.6269 41.4494 60.6269 42.408C60.1476 42.408 59.6683 42.408 59.1205 42.408C59.1205 41.3809 59.1205 40.3538 59.1205 39.3952C57.8195 39.0528 56.8609 38.2311 56.3816 36.8616ZM44.8095 68.1541C47.8908 71.8516 51.6569 74.1797 56.3816 75.0699C56.8609 73.7004 57.8195 72.8103 59.2575 72.4679C59.2575 71.4408 59.2575 70.4137 59.2575 69.4551C59.8052 69.4551 60.2161 69.4551 60.7639 69.4551C60.7639 70.4822 60.7639 71.5093 60.7639 72.4679C62.2018 72.8103 63.092 73.7004 63.5713 75.0699C68.296 74.1113 72.1305 71.8516 75.1433 68.1541C74.2532 66.7846 74.1847 66.3738 74.3216 64.7989C74.3216 64.6619 74.2532 64.525 74.1847 64.4565C72.8837 63.7033 71.5142 63.0185 70.1448 62.2653C67.6797 65.8944 64.3245 67.8802 59.9422 67.8802C55.5599 67.8802 52.2047 65.826 49.7396 62.2653C48.3701 63.0185 47.0691 63.7033 45.7681 64.4565C45.6997 64.525 45.5627 64.6619 45.6312 64.7989C45.9051 66.0999 45.5627 67.1954 44.8095 68.1541ZM49.0549 60.9643C47.6169 57.6091 47.6169 54.2539 49.0549 50.8987C47.6169 50.1455 46.2475 49.3238 44.8095 48.5706C43.8509 49.5977 42.7553 50.0086 41.3858 49.8716C40.1533 53.9116 40.1533 57.883 41.3858 61.923C42.7553 61.786 43.8509 62.2653 44.8095 63.224C46.2475 62.5392 47.6169 61.786 49.0549 60.9643ZM75.0749 63.2924C75.965 62.4023 76.9921 61.8545 78.2931 61.923C78.3616 61.923 78.567 61.7175 78.6355 61.6491C79.3202 59.4579 79.5941 57.2668 79.4572 54.9387C79.3887 53.2268 79.1148 51.5835 78.4985 49.9401C77.1975 50.077 76.102 49.6662 75.2118 48.776C75.1433 48.7076 74.9379 48.7076 74.801 48.776C74.1847 49.1184 73.5684 49.4608 73.0206 49.7347C72.3359 50.1455 71.5827 50.4879 70.898 50.8987C72.3359 54.2539 72.3359 57.6091 70.898 60.9643C72.2674 61.786 73.6369 62.5392 75.0749 63.2924ZM59.9422 37.9572C61.1747 37.9572 62.2018 36.9301 62.2018 35.766C62.2018 34.5335 61.2432 33.5064 60.0107 33.5064C58.7781 33.5064 57.751 34.5335 57.751 35.766C57.6826 36.9301 58.7097 37.9572 59.9422 37.9572ZM44.1933 46.2425C44.1933 45.01 43.1662 43.9829 41.9336 43.9829C40.7011 43.9829 39.674 45.01 39.674 46.2425C39.674 47.475 40.7011 48.4337 41.9336 48.4337C43.2346 48.4337 44.1933 47.4066 44.1933 46.2425ZM80.1419 46.2425C80.1419 45.01 79.1148 43.9829 77.9507 43.9829C76.7182 43.9829 75.6911 44.9415 75.6911 46.174C75.6911 47.4066 76.7182 48.4337 77.9507 48.4337C79.1148 48.5021 80.1419 47.475 80.1419 46.2425ZM44.1933 65.689C44.1933 64.4565 43.1662 63.4294 41.9336 63.4294C40.7011 63.4294 39.674 64.4565 39.674 65.689C39.674 66.9215 40.7011 67.9486 41.9336 67.9486C43.2346 67.9486 44.1933 66.9215 44.1933 65.689ZM80.1419 65.689C80.1419 64.4565 79.1148 63.4294 77.9507 63.4294C76.7182 63.4294 75.6911 64.388 75.6911 65.6205C75.6911 66.8531 76.7182 67.8802 77.9507 67.8802C79.1148 67.9486 80.1419 66.9215 80.1419 65.689ZM59.9422 73.9743C58.7097 73.9743 57.6826 75.0014 57.6826 76.1655C57.6826 77.398 58.7097 78.4251 59.9422 78.4251C61.1747 78.4251 62.2018 77.398 62.2018 76.1655C62.2018 74.933 61.1747 73.9743 59.9422 73.9743Z" fill="white"/>
<path d="M57.545 55.0748C56.1071 53.7738 55.9017 52.1989 56.3125 50.487C56.7233 48.7067 58.5037 47.5427 60.2155 47.6796C62.2012 47.885 63.5022 49.3915 63.6392 51.3772C63.7077 52.7467 63.4338 53.9792 62.2697 55.0063C62.4751 55.1432 62.6806 55.3487 62.886 55.4856C63.9816 56.1703 65.1456 56.8551 66.2412 57.4713C66.5151 57.6083 66.652 57.8137 66.5835 58.1561C66.5835 58.8408 66.5835 59.5255 66.5835 60.1418C66.652 61.032 66.1727 61.6482 65.4195 61.9221C64.6663 62.196 63.8446 62.4014 63.0914 62.4699C60.6263 62.6753 58.0928 62.7438 55.6278 62.333C55.2169 62.2645 54.8061 62.1275 54.3952 61.9906C53.5736 61.6482 53.0942 61.032 53.1627 60.1418C53.1627 59.4571 53.1627 58.7723 53.1627 58.0876C53.1627 57.8137 53.2312 57.6768 53.4366 57.5398C54.6007 56.8551 55.6962 56.1703 56.8603 55.4856C57.1342 55.4171 57.3396 55.2802 57.545 55.0748ZM59.5308 61.2374C60.9002 61.1689 61.8589 61.1689 62.8175 61.1004C63.4338 61.032 64.1185 60.895 64.7348 60.7581C65.0771 60.6896 65.1456 60.4842 65.1456 60.1418C65.351 59.0462 64.9402 58.293 63.8446 57.8822C63.7077 57.8137 63.5707 57.7452 63.5022 57.6768C62.6806 57.129 61.8589 56.5127 61.0372 55.9649C60.9687 55.8964 60.7633 55.8965 60.6263 55.8965C60.0786 55.8965 59.5992 55.8965 59.0515 55.8965C58.9145 55.8965 58.7091 55.8964 58.6406 55.9649C57.7505 56.9236 56.5864 57.4713 55.4908 58.0876C54.8061 58.4984 54.4637 58.9093 54.6007 59.731C54.6691 60.6896 54.6691 60.6896 55.5593 60.9635C55.6278 60.9635 55.6278 60.9635 55.6962 60.9635C57.2027 61.032 58.5721 61.1689 59.5308 61.2374ZM57.682 51.788C57.682 51.9935 57.682 52.1989 57.682 52.4043C57.7505 53.5683 58.7091 54.39 59.8047 54.4585C60.9002 54.527 61.9273 53.7738 62.0643 52.6782C62.1328 52.0619 62.1328 51.4457 61.9958 50.8979C61.6535 49.5284 60.0101 48.8437 58.7776 49.5284C58.0243 50.0077 57.682 50.8294 57.682 51.788Z" fill="white"/>
<path d="M60.6958 36.4497C60.2164 36.4497 59.7371 36.4497 59.2578 36.4497C59.2578 35.9703 59.2578 35.491 59.2578 35.0117C59.7371 35.0117 60.2164 35.0117 60.6958 35.0117C60.6958 35.491 60.6958 35.9703 60.6958 36.4497Z" fill="white"/>
<path d="M42.686 46.9267C42.2067 46.9267 41.7274 46.9267 41.248 46.9267C41.248 46.4474 41.248 45.9681 41.248 45.4888C41.7274 45.4888 42.2067 45.4888 42.686 45.4888C42.686 45.9681 42.686 46.4474 42.686 46.9267Z" fill="white"/>
<path d="M78.6352 45.4888C78.6352 45.9681 78.6352 46.4474 78.6352 46.9267C78.1559 46.9267 77.6766 46.9267 77.1973 46.9267C77.1973 46.4474 77.1973 45.9681 77.1973 45.4888C77.6766 45.4888 78.1559 45.4888 78.6352 45.4888Z" fill="white"/>
<path d="M42.686 66.4417C42.2067 66.4417 41.7274 66.4417 41.248 66.4417C41.248 65.9624 41.248 65.4831 41.248 65.0038C41.7274 65.0038 42.2067 65.0038 42.686 65.0038C42.686 65.4831 42.686 65.9624 42.686 66.4417Z" fill="white"/>
<path d="M78.6352 65.0038C78.6352 65.4831 78.6352 65.9624 78.6352 66.4417C78.1559 66.4417 77.6766 66.4417 77.1973 66.4417C77.1973 65.9624 77.1973 65.4831 77.1973 65.0038C77.6766 65.0038 78.1559 65.0038 78.6352 65.0038Z" fill="white"/>
<path d="M60.6958 75.4807C60.6958 75.96 60.6958 76.4393 60.6958 76.9187C60.2164 76.9187 59.7371 76.9187 59.2578 76.9187C59.2578 76.4393 59.2578 75.96 59.2578 75.4807C59.7371 75.4807 60.148 75.4807 60.6958 75.4807Z" fill="white"/>
<defs>
<filter id="filter0_d_1457_20756" x="0" y="0" width="120" height="120" filterUnits="userSpaceOnUse" color-interpolation-filters="sRGB">
<feFlood flood-opacity="0" result="BackgroundImageFix"/>
<feColorMatrix in="SourceAlpha" type="matrix" values="0 0 0 0 0 0 0 0 0 0 0 0 0 0 0 0 0 0 127 0" result="hardAlpha"/>
<feOffset dy="4"/>
<feGaussianBlur stdDeviation="12.5"/>
<feComposite in2="hardAlpha" operator="out"/>
<feColorMatrix type="matrix" values="0 0 0 0 0.917647 0 0 0 0 0.364706 0 0 0 0 0.733333 0 0 0 0.25 0"/>
<feBlend mode="normal" in2="BackgroundImageFix" result="effect1_dropShadow_1457_20756"/>
<feBlend mode="normal" in="SourceGraphic" in2="effect1_dropShadow_1457_20756" result="shape"/>
</filter>
</defs>
</svg>
